<?xml version="1.0" encoding="utf-8"?>
<!-- Generator: Adobe Illustrator 23.0.1, SVG Export Plug-In . SVG Version: 6.00 Build 0)  -->
<svg version="1.1" xmlns="http://www.w3.org/2000/svg" xmlns:xlink="http://www.w3.org/1999/xlink" x="0px" y="0px"
	 viewBox="0 0 396.85 226.77" style="enable-background:new 0 0 396.85 226.77;" xml:space="preserve">
<style type="text/css">
	.st0{opacity:0.5;fill:#0077B1;}
	.st1{fill:#0077B1;}
	.st2{opacity:0.8;fill:#0077B1;}
	.st3{opacity:0.7;fill:#0077B1;}
	.st4{opacity:0.8;}
</style>
<g id="Ebene_1">
</g>
<g id="Ebene_2">
	<polygon class="st0" points="94.48,132.41 94.48,132.42 102.04,147.54 113.38,141.86 	"/>
	<polygon class="st0" points="113.38,141.86 124.71,147.53 132.27,132.42 	"/>
	<path class="st1" d="M85.24,85.58c-0.14-0.27-0.32-0.52-0.53-0.74L59.79,59.93c-0.57-0.57-1.5,0.1-1.14,0.82l35.82,71.66l9.45-9.45
		L85.24,85.58z"/>
	<path class="st1" d="M141.52,85.58c0.14-0.27,0.32-0.52,0.53-0.74l24.92-24.92c0.57-0.57,1.5,0.1,1.14,0.82l-35.82,71.66
		l-9.45-9.45L141.52,85.58z"/>
	<path class="st2" d="M114.89,115.02c-0.83-0.83-2.18-0.83-3.01,0l-17.39,17.39l18.9,9.45l18.89-9.45L114.89,115.02z"/>
	<path class="st3" d="M164.08,113.52h-22.36l-9.44,18.9l32.44-16.22C166.05,115.53,165.58,113.52,164.08,113.52z"/>
	<path class="st3" d="M62.68,113.52h22.36l9.44,18.9L62.04,116.2C60.71,115.53,61.18,113.52,62.68,113.52z"/>
	<path class="st3" d="M124.71,147.53l-11.33-5.67l-11.35,5.67l9.43,18.87c0.78,1.57,3.02,1.57,3.8,0L124.71,147.53z"/>
	<g class="st4">
		<path class="st1" d="M214.04,94.55c3.61,0,6.7,1.13,9.57,3.22l-2.39,3.48c-2.52-1.57-4.44-2.26-7.18-2.26
			c-5.57,0-8.05,4.05-8.05,10.09c0,6.48,2.52,10.27,7.96,10.27c2.22,0,4.05-0.57,5.7-1.48v-5.48h-4.22v-3.57h8.74v11.48
			c-2.87,2-6.18,3.48-10.53,3.48c-8.92,0-13.09-6-13.09-14.57C200.55,100.6,204.9,94.55,214.04,94.55z"/>
		<path class="st1" d="M238.87,95.03h9.18c6.31,0,9.53,3.52,9.53,8.48c0,3.39-2,6.31-5.44,7.53c0.78,0.57,1.35,1.39,1.91,2.44
			l5.31,9.83h-5.7l-4.44-8.74c-0.91-1.83-1.61-2.61-3.26-2.61h-1.91v11.35h-5.18V95.03z M247.92,107.78c2.87,0,4.22-1.57,4.22-4.22
			c0-2.61-1.22-4.09-4.22-4.09h-3.87v8.31H247.92z"/>
		<path class="st1" d="M272.15,95.03h5.18v28.28h-5.18V95.03z"/>
		<path class="st1" d="M297.34,99.47h-7.61v-4.44h20.4l-0.35,4.44h-7.22v23.84h-5.22V99.47z"/>
	</g>
	<g class="st4">
		<path class="st1" d="M198.43,139.94h21.74v1.22h-21.74V139.94z"/>
		<path class="st1" d="M230.96,140.29c0.72,0,1.44,0.04,1.91,0.11v-1.02c0-1.78-0.85-2.63-2.39-2.63c-1.07,0-1.96,0.41-2.78,1
			l-0.63-1c0.94-0.7,2.09-1.26,3.52-1.26c1.98,0,3.65,1.17,3.65,3.96v6.54h-1.13l-0.13-1.24h-0.09c-0.65,0.76-1.74,1.48-3.24,1.48
			c-2,0-3.2-1.3-3.2-2.91C226.46,140.88,228.9,140.29,230.96,140.29z M229.92,144.98c1.15,0,2.24-0.67,2.96-1.54v-2
			c-0.48-0.06-1.15-0.11-1.85-0.11c-1.46,0-3.13,0.35-3.13,1.85C227.9,144.11,228.53,144.98,229.92,144.98z"/>
		<path class="st1" d="M244.06,150.03h-1.37v-14.31h1.13l0.13,1.24h0.09c0.65-0.76,1.74-1.48,3.09-1.48c2.65,0,4.31,2.17,4.31,5.46
			c0,3.22-1.83,5.28-4.33,5.28c-1.37,0-2.28-0.46-3.04-1.11V150.03z M246.95,144.98c1.83,0,3.04-1.54,3.04-4.07
			c0-2.65-1.07-4.17-3.04-4.17c-1.26,0-2.26,0.78-2.89,1.57v5.48C244.73,144.44,245.69,144.98,246.95,144.98z"/>
		<path class="st1" d="M254.67,130.83h1.37v12.42c0,1.22,0.59,1.78,1.72,1.78l-0.11,1.2c-1.91,0-2.98-0.94-2.98-2.85V130.83z"/>
		<path class="st1" d="M264.04,140.29c0.72,0,1.44,0.04,1.91,0.11v-1.02c0-1.78-0.85-2.63-2.39-2.63c-1.07,0-1.96,0.41-2.78,1
			l-0.63-1c0.94-0.7,2.09-1.26,3.52-1.26c1.98,0,3.65,1.17,3.65,3.96v6.54h-1.13l-0.13-1.24h-0.09c-0.65,0.76-1.74,1.48-3.24,1.48
			c-2,0-3.2-1.3-3.2-2.91C259.54,140.88,261.98,140.29,264.04,140.29z M263,144.98c1.15,0,2.24-0.67,2.96-1.54v-2
			c-0.48-0.06-1.15-0.11-1.85-0.11c-1.46,0-3.13,0.35-3.13,1.85C260.98,144.11,261.61,144.98,263,144.98z"/>
		<path class="st1" d="M275.18,135.48c1.33,0,2.54,0.41,3.5,1.2l-0.63,1c-0.76-0.61-1.76-0.94-2.78-0.94
			c-2.28,0-3.35,1.52-3.35,4.13c0,2.59,1.06,4.11,3.35,4.11c1.02,0,2.04-0.37,2.8-1l0.63,1.02c-0.96,0.76-2.22,1.22-3.52,1.22
			c-3.09,0-4.7-2.04-4.7-5.35C270.48,137.55,272.09,135.48,275.18,135.48z"/>
		<path class="st1" d="M285.55,135.48c2.94,0,4.33,2.09,4.33,4.76c0,0.2-0.02,0.63-0.09,0.8h-7.37c0.06,3.02,1.74,3.94,3.46,3.94
			c1.26,0,2.37-0.5,3.2-0.98l0.54,1.04c-1.02,0.65-2.37,1.17-3.8,1.17c-3.2,0-4.83-2.22-4.83-5.39
			C280.99,137.61,282.62,135.48,285.55,135.48z M288.44,139.94c-0.07-2-1.04-3.2-2.91-3.2c-1.41,0-2.83,0.72-3.07,3.2H288.44z"/>
		<path class="st1" d="M298.67,136.87h-2v-1.15h2v-2c0-1.85,1.24-3.13,3.22-3.13c0.7,0,1.39,0.13,1.94,0.35l-0.35,1.15
			c-0.46-0.2-0.91-0.26-1.48-0.26c-1.28,0-1.96,0.74-1.96,2.04v1.85h2.74l-0.11,1.15h-2.63v9.11h-1.37V136.87z"/>
		<path class="st1" d="M309.48,135.48c3.02,0,4.67,2.24,4.67,5.39c0,3.13-1.7,5.35-4.7,5.35c-3.02,0-4.67-2.24-4.67-5.35
			C304.78,137.72,306.48,135.48,309.48,135.48z M309.46,144.98c2.13,0,3.26-1.65,3.26-4.11c0-2.48-1.13-4.13-3.24-4.13
			c-2.13,0-3.26,1.65-3.26,4.13C306.22,143.33,307.35,144.98,309.46,144.98z"/>
		<path class="st1" d="M317.4,135.72h1.13l0.13,1.83h0.09c0.48-0.93,1.54-2.07,2.94-2.07c0.46,0,0.72,0.07,1.02,0.15l-0.28,1.2
			c-0.22-0.07-0.5-0.09-0.78-0.09c-1.35,0-2.72,1.57-2.87,3.5v5.74h-1.37V135.72z"/>
		<path class="st1" d="M330.21,131.85h1.43v14.13h-1.43V131.85z"/>
		<path class="st1" d="M338.47,133.13h-4.07v-1.28h9.57l-0.13,1.28h-3.94v12.85h-1.43V133.13z"/>
	</g>
</g>
</svg>
